<svg xmlns="http://www.w3.org/2000/svg" viewBox="0 0 512 512">
  <defs>
    <linearGradient id="bg" x1="0%" y1="0%" x2="100%" y2="100%">
      <stop offset="0%" style="stop-color:#3b82f6"/>
      <stop offset="100%" style="stop-color:#1d4ed8"/>
    </linearGradient>
  </defs>
  <rect width="512" height="512" rx="96" fill="url(#bg)"/>
  <g fill="white">
    <!-- Calculator body -->
    <rect x="128" y="96" width="256" height="320" rx="24" fill="white" opacity="0.95"/>
    <!-- Display -->
    <rect x="152" y="120" width="208" height="72" rx="12" fill="#1e40af"/>
    <!-- Buttons row 1 -->
    <rect x="152" y="216" width="44" height="44" rx="8" fill="#e2e8f0"/>
    <rect x="206" y="216" width="44" height="44" rx="8" fill="#e2e8f0"/>
    <rect x="260" y="216" width="44" height="44" rx="8" fill="#e2e8f0"/>
    <rect x="314" y="216" width="44" height="44" rx="8" fill="#3b82f6"/>
    <!-- Buttons row 2 -->
    <rect x="152" y="270" width="44" height="44" rx="8" fill="#e2e8f0"/>
    <rect x="206" y="270" width="44" height="44" rx="8" fill="#e2e8f0"/>
    <rect x="260" y="270" width="44" height="44" rx="8" fill="#e2e8f0"/>
    <rect x="314" y="270" width="44" height="44" rx="8" fill="#3b82f6"/>
    <!-- Buttons row 3 -->
    <rect x="152" y="324" width="44" height="44" rx="8" fill="#e2e8f0"/>
    <rect x="206" y="324" width="44" height="44" rx="8" fill="#e2e8f0"/>
    <rect x="260" y="324" width="44" height="44" rx="8" fill="#e2e8f0"/>
    <rect x="314" y="324" width="44" height="98" rx="8" fill="#10b981"/>
  </g>
</svg>
